<svg width="1024" height="1024" viewBox="0 0 1024 1024" fill="none" xmlns="http://www.w3.org/2000/svg">
<path d="M512 204C628.248 204 777 163.083 808 181C862.5 212.5 795.015 842.501 512 842.501C228.985 842.501 155.5 212.5 216 181C258 163.08 395.752 204 512 204Z" fill="url(#paint0_linear_97_112)"/>
<path d="M511.87 282.069C597.62 282.069 707.347 253.227 730.214 266.486C770.415 289.796 720.635 756 511.87 756C303.105 756 248.899 289.797 293.527 266.486C324.508 253.225 426.12 282.069 511.87 282.069Z" fill="white" fill-opacity="0.4"/>
<path d="M511.552 366.224C565.884 366.224 635.409 347.799 649.898 356.191C675.371 370.944 643.829 666 511.551 666C379.273 666 344.927 370.944 373.204 356.191C392.835 347.798 457.219 366.224 511.552 366.224Z" fill="white" fill-opacity="0.4"/>
<defs>
<linearGradient id="paint0_linear_97_112" x1="196" y1="178" x2="825" y2="843" gradientUnits="userSpaceOnUse">
<stop stop-color="#0900FF"/>
<stop offset="1" stop-color="#3BF8FF"/>
</linearGradient>
</defs>
</svg>
